<svg id="Layer_1" data-name="Layer 1" xmlns="http://www.w3.org/2000/svg" viewBox="0 0 479.97 373.29"><defs><style>.cls-1{fill:#071e55;}</style></defs><title>nomenu_logo</title><path class="cls-1" d="M120.31,440.05H183a5.88,5.88,0,1,0,0-11.75H120.31a5.88,5.88,0,1,0,0,11.75" transform="translate(-17.49 -117.71)"/><polygon class="cls-1" points="453.73 231.62 453.72 361.53 175.61 361.52 175.61 231.61 163.86 231.6 163.85 373.27 465.46 373.29 465.48 231.62 453.73 231.62"/><path class="cls-1" d="M199.63,336.75h-6.34a6.84,6.84,0,0,1-.83,3.32,7,7,0,0,1-6.22,3.72h0a7,7,0,0,1-7.05-7,7,7,0,0,1,.83-3.32,7,7,0,0,1,6.21-3.72h0a6.92,6.92,0,0,1,3.32.83,7,7,0,0,1,3.72,6.22H206A19.73,19.73,0,0,0,186.24,317h0a19.73,19.73,0,0,0,0,39.45h0a19.73,19.73,0,0,0,17.38-10.42,19.45,19.45,0,0,0,2.33-9.31Z" transform="translate(-17.49 -117.71)"/><path class="cls-1" d="M491.12,336.76h-6.33a6.92,6.92,0,0,1-.83,3.32,7,7,0,0,1-13.26-3.32,7,7,0,0,1,.83-3.32,7,7,0,0,1,6.22-3.72,6.69,6.69,0,0,1,3.31.83,7,7,0,0,1,3.73,6.21h12.67a19.69,19.69,0,0,0-10.4-17.38,19.45,19.45,0,0,0-9.31-2.34,19.73,19.73,0,1,0,19.71,19.72Z" transform="translate(-17.49 -117.71)"/><polygon class="cls-1" points="465.48 149.52 465.49 0.01 163.87 0 163.86 149.5 175.61 149.5 175.62 11.75 453.73 11.76 453.73 149.51 465.48 149.52"/><path class="cls-1" d="M199.64,279.78H206a19.72,19.72,0,1,0-2.34,9.32,19.73,19.73,0,0,0,2.34-9.32H193.3a6.82,6.82,0,0,1-.84,3.32,7.06,7.06,0,0,1-6.21,3.73,7.22,7.22,0,0,1-3.32-.83,7,7,0,0,1-3.72-6.22,6.91,6.91,0,0,1,.82-3.31,7,7,0,0,1,6.22-3.73,7,7,0,0,1,3.32.83,7.05,7.05,0,0,1,3.73,6.21Z" transform="translate(-17.49 -117.71)"/><path class="cls-1" d="M491.13,279.79h6.34a19.73,19.73,0,1,0-2.34,9.32,19.73,19.73,0,0,0,2.34-9.32H484.79a6.88,6.88,0,0,1-.83,3.31,7,7,0,0,1-6.21,3.73,6.92,6.92,0,0,1-3.32-.83,7,7,0,0,1,3.32-13.26,7,7,0,0,1,3.32.83,7,7,0,0,1,3.72,6.22Z" transform="translate(-17.49 -117.71)"/><path class="cls-1" d="M102.69,187.41H184a5.88,5.88,0,1,0,0-11.75H102.69a5.88,5.88,0,0,0,0,11.76" transform="translate(-17.49 -117.71)"/><path class="cls-1" d="M23.36,247.14H185.92a5.88,5.88,0,0,0,0-11.75H23.37a5.88,5.88,0,0,0,0,11.76" transform="translate(-17.49 -117.71)"/><path class="cls-1" d="M67.43,382.27H184a5.88,5.88,0,1,0,0-11.75H67.43a5.87,5.87,0,1,0,0,11.74" transform="translate(-17.49 -117.71)"/><path class="cls-1" d="M234.49,260.27l41.3-.19a1.23,1.23,0,0,0,1.23-1.24l-.18-41.31a1.23,1.23,0,0,0-1.25-1.23l-41.3.18a1.25,1.25,0,0,0-1.24,1.25l.19,41.3A1.24,1.24,0,0,0,234.49,260.27Zm1-41.31,38.82-.17.17,38.81-38.81.18Zm5.93,5.87,27-.12.12,27-27,.12Zm34.75,132.45-41.3.19a1.23,1.23,0,0,0-1.23,1.24l.18,41.31a1.23,1.23,0,0,0,1.25,1.23l41.3-.18a1.24,1.24,0,0,0,1.24-1.25l-.19-41.3A1.24,1.24,0,0,0,276.22,357.28Zm-1.05,41.31-38.82.17L236.18,360l38.81-.18Zm-5.93-5.87-27,.12-.12-27,27-.12ZM427.15,356.6l-41.31.19a1.23,1.23,0,0,0-1.23,1.25l.18,41.3a1.25,1.25,0,0,0,1.25,1.24l41.3-.19a1.24,1.24,0,0,0,1.24-1.25l-.19-41.3A1.24,1.24,0,0,0,427.15,356.6Zm-1.06,41.31-38.82.18-.17-38.82,38.82-.18ZM420.16,392l-27,.12-.13-27,27-.12ZM317.53,380.15l46.63-.2.06,14.59h-.06l0,8.1-14.9.07,0-8.1-31.65.14Zm55-88.2.33,74.34-14.69.07-.08-16.9-19.27.09-.07-14.6,19.27-.08,0-7.72-32.7.15-.06-14.59,12.61-.06-.05-11.7-18.64.09.24,53.56,21.83-.09.06,14.59-21.82.1-14.43.06.15,32.11-14.91.06L290,349.77l-37,.16-.06-14.59,51.65-.23-.16-34-30.85.14-.06-14.6,9.3,0-.2-44.35,14.91-.07.2,44.36,6.64,0-.16-34.94,14.7-.07.16,34.94,22.83-.1.06,13.35,15.89-.07-.09-20.11-28.4.13-.07-14.6,28.4-.12,14.7-.07.05,12.5,14.21-.06.06,14.59Zm24.93,45.95,32-.15.07,14.6-32,.14Zm32.12-20.23.06,14.6-50.72.23-.06-14.6,14-.06-.08-19.32,14.9-.06.09,19.31,6.83,0-.17-38.48-6.52,0h-2.61l-12.3.05-.09-20.88-63.6.29-.06-14.6,17.32-.08-.13-29.32,14.9-.06.14,29.32L372.3,244l-.07-14.44,10.2-.05L382.36,215l46.56-.2.07,15.32-12.58,0,.06,13.79-8.77,0,.06,14.44,0,6.29,21.43-.09,0,7.47,0,7.12.18,38.48Zm-95-88-49.68.22-.07-14.6,49.69-.22Zm-82.24,88.78-.1-22.18,14.91-.06.1,22.17Zm-4.91,16.88-14.91.07-.22-50.15v-.81l-.07-13.79,35.92-.16.07,14.6-21,.09Z" transform="translate(-17.49 -117.71)"/></svg>