<?xml version="1.0" encoding="utf-8"?>
<!-- Generator: Adobe Illustrator 16.0.0, SVG Export Plug-In . SVG Version: 6.00 Build 0)  -->
<!DOCTYPE svg PUBLIC "-//W3C//DTD SVG 1.1//EN" "http://www.w3.org/Graphics/SVG/1.1/DTD/svg11.dtd">
<svg version="1.1" id="Layer_1" xmlns="http://www.w3.org/2000/svg" xmlns:xlink="http://www.w3.org/1999/xlink" x="0px" y="0px"
	 width="1400px" height="980px" viewBox="0 0 1400 980" enable-background="new 0 0 1400 980" xml:space="preserve">
<g>
	<g>
		<g>
			<rect fill="#FFFFFF" width="1400" height="980"/>
		</g>
	</g>
	<g>
		<rect x="845.6" y="680" fill="#7CCBFF" width="115.1" height="24.3"/>
		<path d="M960.7,707H845.6c-1.5,0-2.7-1.2-2.7-2.7V680c0-1.5,1.2-2.7,2.7-2.7h115.1c1.5,0,2.7,1.2,2.7,2.7v24.3
			C963.4,705.8,962.2,707,960.7,707z M848.3,701.6h109.6v-18.8H848.3V701.6z"/>
	</g>
	<g>
		<rect x="845.6" y="725.6" fill="#7CCBFF" width="148.1" height="24.3"/>
		<path d="M993.7,752.6H845.6c-1.5,0-2.7-1.2-2.7-2.7v-24.3c0-1.5,1.2-2.7,2.7-2.7h148.1c1.5,0,2.7,1.2,2.7,2.7v24.3
			C996.5,751.4,995.2,752.6,993.7,752.6z M848.3,747.1H991v-18.8H848.3V747.1z"/>
	</g>
	<g>
		<rect x="845.6" y="771.1" fill="#7CCBFF" width="72.3" height="24.3"/>
		<path d="M917.9,798.2h-72.3c-1.5,0-2.7-1.2-2.7-2.7v-24.3c0-1.5,1.2-2.7,2.7-2.7h72.3c1.5,0,2.7,1.2,2.7,2.7v24.3
			C920.7,796.9,919.4,798.2,917.9,798.2z M848.3,792.7h66.8v-18.8h-66.8V792.7z"/>
	</g>
	<g>
		<rect x="845.6" y="816.7" fill="#7CCBFF" width="296.3" height="24.3"/>
		<path d="M1141.9,843.7H845.6c-1.5,0-2.7-1.2-2.7-2.7v-24.3c0-1.5,1.2-2.7,2.7-2.7h296.3c1.5,0,2.7,1.2,2.7,2.7V841
			C1144.6,842.5,1143.4,843.7,1141.9,843.7z M848.3,838.2h290.8v-18.8H848.3V838.2z"/>
	</g>
	<g>
		<rect x="845.6" y="862.3" fill="#7CCBFF" width="455.2" height="24.3"/>
		<path d="M1300.8,889.3H845.6c-1.5,0-2.7-1.2-2.7-2.7v-24.3c0-1.5,1.2-2.7,2.7-2.7h455.2c1.5,0,2.7,1.2,2.7,2.7v24.3
			C1303.5,888,1302.3,889.3,1300.8,889.3z M848.3,883.8H1298V865H848.3V883.8z"/>
	</g>
	<g>
		<path fill="#FF6B74" d="M494.2,120.9c0,11.6-9.4,21-21,21c-11.6,0-21-9.4-21-21c0-11.6,9.4-21,21-21
			C484.8,99.8,494.2,109.3,494.2,120.9z"/>
		<path d="M473.2,144.6c-13.1,0-23.8-10.7-23.8-23.8c0-13.1,10.7-23.8,23.8-23.8s23.8,10.7,23.8,23.8
			C496.9,134,486.3,144.6,473.2,144.6z M473.2,102.6c-10.1,0-18.3,8.2-18.3,18.3c0,10.1,8.2,18.3,18.3,18.3
			c10.1,0,18.3-8.2,18.3-18.3C491.4,110.8,483.2,102.6,473.2,102.6z"/>
	</g>
	<g>
		<path fill="#E7E9EB" d="M494.2,190.4c0,11.6-9.4,21-21,21c-11.6,0-21-9.4-21-21s9.4-21,21-21C484.8,169.3,494.2,178.8,494.2,190.4
			z"/>
		<path d="M473.2,214.1c-13.1,0-23.8-10.7-23.8-23.8c0-13.1,10.7-23.8,23.8-23.8s23.8,10.7,23.8,23.8
			C496.9,203.5,486.3,214.1,473.2,214.1z M473.2,172.1c-10.1,0-18.3,8.2-18.3,18.3c0,10.1,8.2,18.3,18.3,18.3
			c10.1,0,18.3-8.2,18.3-18.3C491.4,180.3,483.2,172.1,473.2,172.1z"/>
	</g>
	<g>
		<path fill="#7CCBFF" d="M494.2,259.9c0,11.6-9.4,21-21,21c-11.6,0-21-9.4-21-21c0-11.6,9.4-21,21-21
			C484.8,238.9,494.2,248.3,494.2,259.9z"/>
		<path d="M473.2,283.6c-13.1,0-23.8-10.7-23.8-23.8c0-13.1,10.7-23.8,23.8-23.8s23.8,10.7,23.8,23.8
			C496.9,273,486.3,283.6,473.2,283.6z M473.2,241.6c-10.1,0-18.3,8.2-18.3,18.3c0,10.1,8.2,18.3,18.3,18.3
			c10.1,0,18.3-8.2,18.3-18.3C491.4,249.8,483.2,241.6,473.2,241.6z"/>
	</g>
	<g>
		<path d="M826.9,123.6H531.3c-1.5,0-2.7-1.2-2.7-2.7c0-1.5,1.2-2.7,2.7-2.7h295.6c1.5,0,2.7,1.2,2.7,2.7
			C829.7,122.4,828.4,123.6,826.9,123.6z"/>
	</g>
	<g>
		<path d="M951.9,123.6h-77.9c-1.5,0-2.7-1.2-2.7-2.7c0-1.5,1.2-2.7,2.7-2.7h77.9c1.5,0,2.7,1.2,2.7,2.7
			C954.6,122.4,953.4,123.6,951.9,123.6z"/>
	</g>
	<g>
		<path d="M826.9,193.1H531.3c-1.5,0-2.7-1.2-2.7-2.7s1.2-2.7,2.7-2.7h295.6c1.5,0,2.7,1.2,2.7,2.7S828.4,193.1,826.9,193.1z"/>
	</g>
	<g>
		<path d="M951.9,193.1h-77.9c-1.5,0-2.7-1.2-2.7-2.7s1.2-2.7,2.7-2.7h77.9c1.5,0,2.7,1.2,2.7,2.7S953.4,193.1,951.9,193.1z"/>
	</g>
	<g>
		<path d="M826.9,262.6H531.3c-1.5,0-2.7-1.2-2.7-2.7s1.2-2.7,2.7-2.7h295.6c1.5,0,2.7,1.2,2.7,2.7S828.4,262.6,826.9,262.6z"/>
	</g>
	<g>
		<path d="M951.9,262.6h-77.9c-1.5,0-2.7-1.2-2.7-2.7s1.2-2.7,2.7-2.7h77.9c1.5,0,2.7,1.2,2.7,2.7S953.4,262.6,951.9,262.6z"/>
	</g>
	<g>
		<g>
			<path fill="#7CCBFF" d="M1118.7,310.5c19.1,13.3,23.7,39.5,10.4,58.6c-13.3,19.1-39.5,23.7-58.6,10.4
				c-19.1-13.3-23.7-39.5-10.4-58.6C1073.4,301.9,1099.6,297.2,1118.7,310.5z"/>
			<path d="M1094.6,389.9c-9.2,0-18.1-2.8-25.6-8.1c-9.8-6.9-16.4-17.1-18.5-28.9c-2.1-11.8,0.5-23.7,7.4-33.5
				c8.4-12,22.1-19.2,36.8-19.2c9.2,0,18,2.8,25.6,8.1c9.8,6.9,16.4,17.1,18.5,28.9c2.1,11.8-0.5,23.7-7.4,33.5
				C1123,382.7,1109.2,389.9,1094.6,389.9z M1094.7,305.7c-12.9,0-24.9,6.3-32.3,16.8c-6,8.6-8.3,19.1-6.5,29.4
				c1.8,10.3,7.6,19.4,16.2,25.4c6.6,4.6,14.4,7.1,22.5,7.1c12.9,0,25-6.3,32.3-16.8c6-8.6,8.3-19.1,6.5-29.4
				c-1.8-10.4-7.6-19.4-16.2-25.4C1110.5,308.1,1102.7,305.7,1094.7,305.7z"/>
		</g>
		<g>
			<path fill="#E7E9EB" d="M1235.3,217c13.7,9.6,17.1,28.4,7.5,42.1c-9.6,13.7-28.4,17.1-42.1,7.5c-13.7-9.6-17.1-28.4-7.5-42.1
				C1202.8,210.8,1221.6,207.4,1235.3,217z"/>
			<path d="M1218,274.8c-6.8,0-13.3-2.1-18.9-5.9c-14.9-10.4-18.6-31-8.2-46c6.2-8.8,16.3-14.1,27.1-14.1c6.8,0,13.3,2.1,18.9,5.9
				c14.9,10.4,18.6,31,8.2,46C1238.9,269.5,1228.8,274.8,1218,274.8z M1218,214.3c-9,0-17.5,4.4-22.6,11.8
				c-8.7,12.4-5.6,29.6,6.8,38.3c4.6,3.2,10.1,5,15.7,5c9,0,17.4-4.4,22.6-11.8c8.7-12.4,5.6-29.6-6.8-38.3
				C1229.1,216,1223.7,214.3,1218,214.3z"/>
		</g>
		<g>
			<path d="M1127,320.7c-0.8,0-1.6-0.3-2.1-1c-1-1.2-0.8-2.9,0.3-3.9l67.8-56.7c1.2-1,2.9-0.8,3.9,0.3c1,1.2,0.8,2.9-0.3,3.9
				l-67.8,56.7C1128.3,320.4,1127.7,320.7,1127,320.7z"/>
		</g>
		<g>
			<g>
				<path d="M1302.4,559.5h-292.2c-1.5,0-2.7-1.2-2.7-2.7V169.2c0-1.5,1.2-2.7,2.7-2.7h292.2c1.5,0,2.7,1.2,2.7,2.7v387.5
					C1305.1,558.2,1303.9,559.5,1302.4,559.5z M1012.9,554h286.7V172h-286.7V554z"/>
			</g>
			<g>
				<path fill="#E7E9EB" d="M1010.2,610.2c0,15.1,12.2,27.3,27.3,27.3h237.6c15.1,0,27.3-12.2,27.3-27.3v-53.5h-292.2V610.2z"/>
				<path d="M1275.1,640.3h-237.6c-16.6,0-30.1-13.5-30.1-30.1v-53.5c0-1.5,1.2-2.7,2.7-2.7h292.2c1.5,0,2.7,1.2,2.7,2.7v53.5
					C1305.1,626.8,1291.6,640.3,1275.1,640.3z M1012.9,559.5v50.8c0,13.6,11,24.6,24.6,24.6h237.6c13.5,0,24.6-11,24.6-24.6v-50.8
					H1012.9z"/>
			</g>
			<g>
				<path fill="#E7E9EB" d="M1302.4,133.8c0-15.1-12.2-27.3-27.3-27.3h-237.6c-15.1,0-27.3,12.2-27.3,27.3v35.4h292.2V133.8z"/>
				<path d="M1302.4,172h-292.2c-1.5,0-2.7-1.2-2.7-2.7v-35.4c0-16.6,13.5-30.1,30.1-30.1h237.6c16.6,0,30.1,13.5,30.1,30.1v35.4
					C1305.1,170.8,1303.9,172,1302.4,172z M1012.9,166.5h286.7v-32.7c0-13.6-11-24.6-24.6-24.6h-237.6c-13.6,0-24.6,11-24.6,24.6
					V166.5z"/>
			</g>
		</g>
		<g>
			<rect x="1120.6" y="580.7" fill="#D1D3D4" width="71.3" height="32.9"/>
			<path d="M1191.9,616.3h-71.3c-1.5,0-2.7-1.2-2.7-2.7v-32.9c0-1.5,1.2-2.7,2.7-2.7h71.3c1.5,0,2.7,1.2,2.7,2.7v32.9
				C1194.6,615.1,1193.4,616.3,1191.9,616.3z M1123.4,610.8h65.8v-27.4h-65.8V610.8z"/>
		</g>
		<g>
			<g>
				<path d="M1276.3,534h-252.2c-1.5,0-2.7-1.2-2.7-2.7c0-1.5,1.2-2.7,2.7-2.7h252.2c1.5,0,2.7,1.2,2.7,2.7
					C1279,532.8,1277.8,534,1276.3,534z"/>
			</g>
			<g>
				<path d="M1094.9,464.7c-0.4,0-0.9-0.1-1.3-0.3l-49.8-26.9c-1.3-0.7-1.8-2.4-1.1-3.7c0.7-1.3,2.4-1.8,3.7-1.1l48.1,26
					l180.3-153.3c1.1-1,2.9-0.8,3.9,0.3c1,1.2,0.8,2.9-0.3,3.9l-181.7,154.6C1096.2,464.5,1095.6,464.7,1094.9,464.7z"/>
			</g>
			<g>
				<path d="M1057.7,534c-1.5,0-2.7-1.2-2.7-2.7v-89.4c0-1.5,1.2-2.7,2.7-2.7s2.7,1.2,2.7,2.7v89.4
					C1060.5,532.8,1059.2,534,1057.7,534z"/>
			</g>
			<g>
				<path d="M1094.9,534c-1.5,0-2.7-1.2-2.7-2.7V462c0-1.5,1.2-2.7,2.7-2.7c1.5,0,2.7,1.2,2.7,2.7v69.3
					C1097.7,532.8,1096.5,534,1094.9,534z"/>
			</g>
			<g>
				<path d="M1132.2,534c-1.5,0-2.7-1.2-2.7-2.7V430.5c0-1.5,1.2-2.7,2.7-2.7s2.7,1.2,2.7,2.7v100.8
					C1134.9,532.8,1133.7,534,1132.2,534z"/>
			</g>
			<g>
				<path d="M1169.4,534c-1.5,0-2.7-1.2-2.7-2.7V399c0-1.5,1.2-2.7,2.7-2.7c1.5,0,2.7,1.2,2.7,2.7v132.3
					C1172.1,532.8,1170.9,534,1169.4,534z"/>
			</g>
			<g>
				<path d="M1206.6,534c-1.5,0-2.7-1.2-2.7-2.7V367.4c0-1.5,1.2-2.7,2.7-2.7s2.7,1.2,2.7,2.7v163.8
					C1209.3,532.8,1208.1,534,1206.6,534z"/>
			</g>
			<g>
				<path d="M1244.2,534c-1.5,0-2.7-1.2-2.7-2.7V336c0-1.5,1.2-2.7,2.7-2.7c1.5,0,2.7,1.2,2.7,2.7v195.3
					C1247,532.8,1245.7,534,1244.2,534z"/>
			</g>
			<g>
				<path d="M1275.6,330.5c0,0-0.1,0-0.1,0c-1.5-0.1-2.7-1.4-2.6-2.9l0.9-18.2l-18.2-0.9c-1.5-0.1-2.7-1.4-2.6-2.9
					c0.1-1.5,1.4-2.7,2.9-2.6l20.9,1.1c0.7,0,1.4,0.4,1.9,0.9c0.5,0.5,0.7,1.3,0.7,2l-1.1,20.9
					C1278.2,329.3,1277,330.5,1275.6,330.5z"/>
			</g>
		</g>
	</g>
	<g>
		<g>
			<rect x="82.7" y="609" fill="#FFFFFF" width="331" height="273.2"/>
			<path fill="#231F20" d="M413.7,884.9h-331c-1.5,0-2.7-1.2-2.7-2.7V609c0-1.5,1.2-2.7,2.7-2.7h331c1.5,0,2.7,1.2,2.7,2.7v273.2
				C416.5,883.7,415.2,884.9,413.7,884.9z M85.4,879.4H411V611.7H85.4V879.4z"/>
		</g>
		<g>
			<g>
				<polyline fill="#FF6B74" points="374.5,841.9 374.5,716.9 343,678.4 311.4,716.9 311.4,841.9 				"/>
				<path d="M374.5,844.7c-1.5,0-2.7-1.2-2.7-2.7v-124L343,682.7l-28.8,35.2v124c0,1.5-1.2,2.7-2.7,2.7s-2.7-1.2-2.7-2.7v-125
					c0-0.6,0.2-1.2,0.6-1.7l31.6-38.5c1-1.3,3.2-1.3,4.2,0l31.6,38.5c0.4,0.5,0.6,1.1,0.6,1.7v125
					C377.3,843.4,376.1,844.7,374.5,844.7z"/>
			</g>
			<g>
				<polyline fill="#7CCBFF" points="279.8,841.9 279.8,731.2 248.2,692.7 216.6,731.2 216.6,841.9 				"/>
				<path d="M279.8,844.7c-1.5,0-2.7-1.2-2.7-2.7V732.2L248.2,697l-28.8,35.2v109.7c0,1.5-1.2,2.7-2.7,2.7c-1.5,0-2.7-1.2-2.7-2.7
					V731.2c0-0.6,0.2-1.2,0.6-1.7l31.6-38.5c1-1.3,3.2-1.3,4.2,0l31.6,38.5c0.4,0.5,0.6,1.1,0.6,1.7v110.7
					C282.5,843.4,281.3,844.7,279.8,844.7z"/>
			</g>
			<g>
				<path d="M384.5,719.6h-83c-1.5,0-2.7-1.2-2.7-2.7c0-1.5,1.2-2.7,2.7-2.7h83c1.5,0,2.7,1.2,2.7,2.7
					C387.2,718.4,386,719.6,384.5,719.6z"/>
			</g>
			<g>
				<path d="M289.7,733.9h-83c-1.5,0-2.7-1.2-2.7-2.7c0-1.5,1.2-2.7,2.7-2.7h83c1.5,0,2.7,1.2,2.7,2.7
					C292.4,732.7,291.2,733.9,289.7,733.9z"/>
			</g>
			<g>
				<polyline fill="#E7E9EB" points="185,841.9 185,808.3 153.5,769.8 121.9,808.3 121.9,841.9 388.9,841.9 				"/>
				<path d="M388.9,844.7h-267c-1.5,0-2.7-1.2-2.7-2.7v-33.6c0-0.6,0.2-1.2,0.6-1.7l31.6-38.5c1-1.3,3.2-1.3,4.2,0l31.6,38.5
					c0.4,0.5,0.6,1.1,0.6,1.7v30.9h201.1c1.5,0,2.7,1.2,2.7,2.7C391.6,843.4,390.4,844.7,388.9,844.7z M124.6,839.2h57.7v-29.9
					l-28.8-35.2l-28.8,35.2V839.2z"/>
			</g>
			<g>
				<path d="M137.8,733.9H82.7c-1.5,0-2.7-1.2-2.7-2.7c0-1.5,1.2-2.7,2.7-2.7h55.1c1.5,0,2.7,1.2,2.7,2.7
					C140.6,732.7,139.4,733.9,137.8,733.9z"/>
			</g>
			<g>
				<path d="M169.4,695.4H82.7c-1.5,0-2.7-1.2-2.7-2.7s1.2-2.7,2.7-2.7h86.7c1.5,0,2.7,1.2,2.7,2.7S170.9,695.4,169.4,695.4z"/>
			</g>
			<g>
				<path d="M169.4,660.1H82.7c-1.5,0-2.7-1.2-2.7-2.7s1.2-2.7,2.7-2.7h86.7c1.5,0,2.7,1.2,2.7,2.7S170.9,660.1,169.4,660.1z"/>
			</g>
			<g>
				<path d="M194.9,810.8h-83c-1.5,0-2.7-1.2-2.7-2.7c0-1.5,1.2-2.7,2.7-2.7h83c1.5,0,2.7,1.2,2.7,2.7
					C197.7,809.5,196.5,810.8,194.9,810.8z"/>
			</g>
		</g>
	</g>
	<g>
		<g>
			<path d="M793.7,889.3H469c-1.5,0-2.7-1.2-2.7-2.7V717.6c0-1.5,1.2-2.7,2.7-2.7h324.7c1.5,0,2.7,1.2,2.7,2.7v168.9
				C796.4,888,795.2,889.3,793.7,889.3z M471.7,883.8h319.2V720.3H471.7V883.8z"/>
		</g>
		<g>
			<path d="M793.7,720.3H469c-1.5,0-2.7-1.2-2.7-2.7v-35.8c0-1.5,1.2-2.7,2.7-2.7h324.7c1.5,0,2.7,1.2,2.7,2.7v35.8
				C796.4,719.1,795.2,720.3,793.7,720.3z M471.7,714.8h319.2v-30.3H471.7V714.8z"/>
		</g>
	</g>
	<g>
		<g>
			<path d="M494,710.4c-0.7,0-1.4-0.3-1.9-0.8l-16-16c-1.1-1.1-1.1-2.8,0-3.9c1.1-1.1,2.8-1.1,3.9,0l16,16c1.1,1.1,1.1,2.8,0,3.9
				C495.4,710.2,494.7,710.4,494,710.4z"/>
		</g>
		<g>
			<path d="M478,710.4c-0.7,0-1.4-0.3-1.9-0.8c-1.1-1.1-1.1-2.8,0-3.9l16-16c1.1-1.1,2.8-1.1,3.9,0c1.1,1.1,1.1,2.8,0,3.9l-16,16
				C479.4,710.2,478.7,710.4,478,710.4z"/>
		</g>
	</g>
	<g>
		<path d="M524.1,709.6h-18.4c-1.5,0-2.7-1.2-2.7-2.7c0-1.5,1.2-2.7,2.7-2.7h18.4c1.5,0,2.7,1.2,2.7,2.7
			C526.9,708.4,525.6,709.6,524.1,709.6z"/>
	</g>
	<g>
		<path d="M781.1,702.4h-58.4c-1.5,0-2.7-1.2-2.7-2.7c0-1.5,1.2-2.7,2.7-2.7h58.4c1.5,0,2.7,1.2,2.7,2.7
			C783.8,701.2,782.6,702.4,781.1,702.4z"/>
	</g>
	<g>
		<g>
			<g>
				<path fill="#FFFFFF" d="M283.4,350.6V279c-48.9,0-88.6-39.7-88.6-88.6h-71.6v160.2H283.4z"/>
				<path d="M283.4,353.3H123.2c-1.5,0-2.7-1.2-2.7-2.7V190.4c0-1.5,1.2-2.7,2.7-2.7h71.6c1.5,0,2.7,1.2,2.7,2.7
					c0,47.3,38.5,85.9,85.9,85.9c1.5,0,2.7,1.2,2.7,2.7v71.6C286.2,352.1,285,353.3,283.4,353.3z M126,347.8h154.7v-66.2
					c-48.2-1.4-87.1-40.4-88.6-88.6H126V347.8z"/>
			</g>
			<g>
				<path fill="#FFFFFF" d="M283.4,279c48.9,0,88.6-39.7,88.6-88.6s-39.7-88.6-88.6-88.6c-48.9,0-88.6,39.7-88.6,88.6h88.6V279z"/>
				<path d="M283.4,281.7c-1.5,0-2.7-1.2-2.7-2.7v-85.9h-85.9c-1.5,0-2.7-1.2-2.7-2.7c0-50.4,41-91.3,91.3-91.3s91.3,41,91.3,91.3
					C374.8,240.7,333.8,281.7,283.4,281.7z M197.6,187.6h85.8c1.5,0,2.7,1.2,2.7,2.7v85.8c46.1-1.5,83.1-39.4,83.1-85.8
					c0-47.3-38.5-85.9-85.9-85.9C237,104.5,199.1,141.6,197.6,187.6z"/>
			</g>
			<g>
				<path fill="#FF6B74" d="M283.4,279v-88.6h-88.6C194.8,239.3,234.5,279,283.4,279z"/>
				<path d="M283.4,281.7c-50.4,0-91.3-41-91.3-91.3c0-1.5,1.2-2.7,2.7-2.7h88.6c1.5,0,2.7,1.2,2.7,2.7V279
					C286.2,280.5,285,281.7,283.4,281.7z M197.6,193.1c1.4,45.2,37.9,81.6,83.1,83.1v-83.1H197.6z"/>
			</g>
		</g>
		<g>
			<path d="M395.6,193.1c-1.5,0-2.7-1.2-2.7-2.7c0-60.3-49.1-109.4-109.4-109.4c-1.5,0-2.7-1.2-2.7-2.7c0-1.5,1.2-2.7,2.7-2.7
				c63.4,0,114.9,51.5,114.9,114.9C398.4,191.9,397.1,193.1,395.6,193.1z"/>
		</g>
		<g>
			<path d="M171.2,375.8h-70.4c-1.5,0-2.7-1.2-2.7-2.7v-70.4c0-1.5,1.2-2.7,2.7-2.7c1.5,0,2.7,1.2,2.7,2.7v67.6h67.6
				c1.5,0,2.7,1.2,2.7,2.7S172.7,375.8,171.2,375.8z"/>
		</g>
	</g>
	<g>
		<g>
			<path fill="#7CCBFF" d="M183.4,514.2c12.9,13.1,12.8,34.2-0.4,47.1c-13.1,12.9-34.2,12.8-47.1-0.4c-12.9-13.1-12.8-34.2,0.3-47.1
				C149.4,500.9,170.5,501.1,183.4,514.2z"/>
			<path d="M159.7,573.7c-9.7,0-18.9-3.8-25.7-10.8c-6.8-6.9-10.4-15.9-10.4-25.6c0.1-9.6,3.9-18.7,10.7-25.4
				c6.8-6.7,15.8-10.4,25.3-10.4c9.7,0,18.9,3.8,25.7,10.8c14,14.2,13.8,37.1-0.4,51C178.2,570,169.2,573.7,159.7,573.7z M159.7,507
				c-8.1,0-15.7,3.1-21.5,8.8c-5.8,5.7-9.1,13.4-9.1,21.6c-0.1,8.2,3.1,15.9,8.8,21.7c5.8,5.9,13.5,9.1,21.8,9.1
				c8.1,0,15.7-3.1,21.5-8.8c12-11.8,12.2-31.2,0.3-43.3C175.7,510.3,167.9,507,159.7,507z"/>
		</g>
		<g>
			<path fill="#FF6B74" d="M378.2,514.2c12.9,13.1,12.8,34.2-0.4,47.1c-13.1,12.9-34.2,12.8-47.1-0.4c-12.9-13.1-12.8-34.2,0.3-47.1
				C344.1,500.9,365.2,501.1,378.2,514.2z"/>
			<path d="M354.4,573.7c-9.7,0-18.9-3.8-25.7-10.8c-6.8-6.9-10.4-15.9-10.4-25.6c0.1-9.6,3.9-18.7,10.7-25.4
				c6.8-6.7,15.8-10.4,25.3-10.4c9.7,0,18.9,3.8,25.7,10.8c14,14.2,13.8,37.1-0.4,51C372.9,570,363.9,573.7,354.4,573.7z M354.4,507
				c-8.1,0-15.7,3.1-21.5,8.8c-5.8,5.7-9.1,13.4-9.1,21.6c-0.1,8.2,3.1,15.9,8.8,21.7c5.8,5.9,13.5,9.1,21.8,9.1
				c8.1,0,15.7-3.1,21.5-8.8c12-11.8,12.2-31.2,0.3-43.3C370.4,510.3,362.7,507,354.4,507z"/>
		</g>
		<g>
			<path fill="#FFFFFF" d="M298.7,409.4c22.7,23,22.4,60.1-0.6,82.8c-23,22.7-60.1,22.4-82.8-0.6c-22.7-23-22.4-60.1,0.6-82.8
				S276.1,386.4,298.7,409.4z"/>
			<path d="M257,511.8c-16.5,0-32.1-6.5-43.7-18.3c-23.7-24.1-23.4-63,0.6-86.7c11.5-11.4,26.8-17.6,43-17.6
				c16.5,0,32,6.5,43.7,18.3c23.7,24.1,23.4,63-0.7,86.7C288.5,505.6,273.2,511.8,257,511.8z M257,394.7c-14.7,0-28.7,5.7-39.2,16
				c-21.9,21.6-22.2,57-0.6,78.9c10.6,10.7,24.7,16.6,39.8,16.6c14.7,0,28.6-5.7,39.1-16c21.9-21.6,22.2-57,0.6-78.9
				C286.2,400.6,272.1,394.7,257,394.7z"/>
		</g>
		<g>
			<path d="M249.8,476.8c-0.7,0-1.4-0.3-1.9-0.8l-22.6-22.7c-1.1-1.1-1.1-2.8,0-3.9c1.1-1.1,2.8-1.1,3.9,0l20.6,20.7l40.9-42.2
				c1.1-1.1,2.8-1.1,3.9-0.1c1.1,1.1,1.1,2.8,0.1,3.9L251.8,476C251.3,476.5,250.8,476.8,249.8,476.8z"/>
		</g>
		<g>
			<path d="M185.3,519c-0.8,0-1.6-0.3-2.1-1c-1-1.2-0.8-2.9,0.4-3.9l30.1-24.6c1.2-1,2.9-0.8,3.9,0.4c1,1.2,0.8,2.9-0.4,3.9
				L187,518.4C186.5,518.8,185.9,519,185.3,519z"/>
		</g>
		<g>
			<path d="M329.1,518.7c-0.6,0-1.3-0.2-1.8-0.7l-29.5-25.2c-1.2-1-1.3-2.7-0.3-3.9c1-1.2,2.7-1.3,3.9-0.3l29.5,25.2
				c1.2,1,1.3,2.7,0.3,3.9C330.6,518.4,329.8,518.7,329.1,518.7z"/>
		</g>
	</g>
	<g>
		<g>
			<polygon fill="#FF6B74" points="1113.5,774.8 1049.3,737.7 1113.5,700.7 			"/>
			<path d="M1113.5,777.5c-0.5,0-0.9-0.1-1.4-0.4l-64.2-37c-0.8-0.5-1.4-1.4-1.4-2.4c0-1,0.5-1.9,1.4-2.4l64.2-37
				c0.8-0.5,1.9-0.5,2.7,0c0.8,0.5,1.4,1.4,1.4,2.4v74.1c0,1-0.5,1.9-1.4,2.4C1114.4,777.4,1114,777.5,1113.5,777.5z M1054.8,737.7
				l55.9,32.3v-64.6L1054.8,737.7z"/>
		</g>
		<g>
			<polygon fill="#FF6B74" points="1207.9,774.8 1143.8,737.7 1207.9,700.7 			"/>
			<path d="M1207.9,777.5c-0.5,0-0.9-0.1-1.4-0.4l-64.2-37c-0.8-0.5-1.4-1.4-1.4-2.4c0-1,0.5-1.9,1.4-2.4l64.2-37
				c0.8-0.5,1.9-0.5,2.7,0c0.8,0.5,1.4,1.4,1.4,2.4v74.1c0,1-0.5,1.9-1.4,2.4C1208.9,777.4,1208.4,777.5,1207.9,777.5z
				 M1149.3,737.7l55.9,32.3v-64.6L1149.3,737.7z"/>
		</g>
		<g>
			<polygon fill="#FF6B74" points="1302.4,774.8 1238.2,737.7 1302.4,700.7 			"/>
			<path d="M1302.4,777.5c-0.5,0-0.9-0.1-1.4-0.4l-64.2-37c-0.8-0.5-1.4-1.4-1.4-2.4c0-1,0.5-1.9,1.4-2.4l64.2-37
				c0.8-0.5,1.9-0.5,2.7,0c0.8,0.5,1.4,1.4,1.4,2.4v74.1c0,1-0.5,1.9-1.4,2.4C1303.3,777.4,1302.9,777.5,1302.4,777.5z
				 M1243.7,737.7l55.9,32.3v-64.6L1243.7,737.7z"/>
		</g>
	</g>
	<g>
		<g>
			<rect x="535.8" y="389" fill="#D1D3D4" width="402.7" height="247.6"/>
			<path d="M938.5,639.3H535.8c-1.5,0-2.7-1.2-2.7-2.7V389c0-1.5,1.2-2.7,2.7-2.7h402.7c1.5,0,2.7,1.2,2.7,2.7v247.6
				C941.3,638.1,940.1,639.3,938.5,639.3z M538.6,633.8h397.2V391.7H538.6V633.8z"/>
		</g>
		<g>
			<rect x="450.5" y="352" fill="#E6E7E8" width="402.7" height="247.6"/>
			<path d="M853.2,602.3H450.5c-1.5,0-2.7-1.2-2.7-2.7V352c0-1.5,1.2-2.7,2.7-2.7h402.7c1.5,0,2.7,1.2,2.7,2.7v247.6
				C855.9,601.1,854.7,602.3,853.2,602.3z M453.2,596.8h397.2V354.7H453.2V596.8z"/>
		</g>
		<g>
			<path fill="#FFFFFF" d="M853.2,215.4c-27.5,0-49.8,22.3-49.8,49.8V315v197.8c0-27.5,22.3-49.8,49.8-49.8
				c27.5,0,49.8,22.3,49.8,49.8V265.2C903,237.7,880.7,215.4,853.2,215.4z"/>
			<path d="M903,515.5c-1.5,0-2.7-1.2-2.7-2.7c0-25.9-21.1-47.1-47.1-47.1c-25.9,0-47.1,21.1-47.1,47.1c0,1.5-1.2,2.7-2.7,2.7
				c-1.5,0-2.7-1.2-2.7-2.7V265.2c0-29,23.6-52.5,52.5-52.5c29,0,52.6,23.6,52.6,52.5v247.6C905.7,514.3,904.5,515.5,903,515.5z
				 M853.2,460.2c20.6,0,38.5,11.9,47.1,29.2V265.2c0-26-21.1-47.1-47.1-47.1c-25.9,0-47.1,21.1-47.1,47.1v224.2
				C814.7,472.1,832.6,460.2,853.2,460.2z"/>
		</g>
		<g>
			<path fill="#FFFFFF" d="M853.2,463c-27.5,0-49.8,22.3-49.8,49.8V315H500.3v247.6h352.9c27.5,0,49.8-22.3,49.8-49.8
				C903,485.3,880.7,463,853.2,463z"/>
			<path d="M853.2,565.3H500.3c-1.5,0-2.7-1.2-2.7-2.7V315c0-1.5,1.2-2.7,2.7-2.7h303.1c1.5,0,2.7,1.2,2.7,2.7v174.4
				c8.6-17.3,26.5-29.2,47.1-29.2c29,0,52.6,23.6,52.6,52.5S882.1,565.3,853.2,565.3z M503,559.8h350.1c26,0,47.1-21.1,47.1-47.1
				c0-25.9-21.1-47.1-47.1-47.1c-25.9,0-47.1,21.1-47.1,47.1c0,1.5-1.2,2.7-2.7,2.7c-1.5,0-2.7-1.2-2.7-2.7v-195H503V559.8z"/>
		</g>
		<g>
			<path d="M543.1,518.6c-0.3,0-0.7-0.1-1-0.2c-1.4-0.6-2.1-2.2-1.5-3.6l33.4-81.4c0.6-1.4,2.2-2.1,3.6-1.5c1.4,0.6,2.1,2.2,1.5,3.6
				l-33.4,81.4C545.2,518,544.1,518.6,543.1,518.6z"/>
		</g>
		<g>
			<circle fill="#FF6B74" cx="543.1" cy="515.9" r="20"/>
			<path d="M543.1,538.6c-12.6,0-22.8-10.2-22.8-22.8s10.2-22.8,22.8-22.8s22.8,10.2,22.8,22.8S555.6,538.6,543.1,538.6z
				 M543.1,498.6c-9.5,0-17.3,7.8-17.3,17.3c0,9.5,7.8,17.3,17.3,17.3c9.5,0,17.3-7.8,17.3-17.3
				C560.4,506.3,552.6,498.6,543.1,498.6z"/>
		</g>
		<g>
			<path d="M636.5,486.3c-0.6,0-1.2-0.2-1.7-0.6l-60.1-49.1c-1.2-1-1.3-2.7-0.4-3.9c1-1.2,2.7-1.4,3.9-0.4l60.1,49.1
				c1.2,1,1.3,2.7,0.4,3.9C638.1,485.9,637.3,486.3,636.5,486.3z"/>
		</g>
		<g>
			<path d="M636.5,486.3c-0.6,0-1.2-0.2-1.7-0.6c-1.2-0.9-1.4-2.7-0.4-3.9l54.1-68.1c0.9-1.2,2.7-1.4,3.9-0.4
				c1.2,0.9,1.4,2.7,0.4,3.9l-54.1,68.1C638.1,485.9,637.3,486.3,636.5,486.3z"/>
		</g>
		<g>
			<path d="M690.6,418.2c-1,0-1.9-0.5-2.4-1.4c-0.8-1.3-0.3-3,1-3.7l75.4-43.4c1.3-0.8,3-0.3,3.7,1c0.8,1.3,0.3,3-1,3.7L692,417.8
				C691.5,418,691.1,418.2,690.6,418.2z"/>
		</g>
		<g>
			<circle fill="#FF6B74" cx="636.5" cy="483.5" r="20"/>
			<path d="M636.5,506.3c-12.6,0-22.8-10.2-22.8-22.8c0-12.6,10.2-22.8,22.8-22.8c12.6,0,22.8,10.2,22.8,22.8
				C659.3,496.1,649.1,506.3,636.5,506.3z M636.5,466.2c-9.5,0-17.3,7.8-17.3,17.3c0,9.5,7.8,17.3,17.3,17.3
				c9.5,0,17.3-7.8,17.3-17.3C653.8,474,646.1,466.2,636.5,466.2z"/>
		</g>
		<g>
			<path fill="#FF6B74" d="M596.5,434.4c0,11.1-9,20-20,20s-20-9-20-20c0-11.1,9-20,20-20S596.5,423.4,596.5,434.4z"/>
			<path d="M576.5,457.2c-12.6,0-22.8-10.2-22.8-22.8s10.2-22.8,22.8-22.8c12.6,0,22.8,10.2,22.8,22.8S589,457.2,576.5,457.2z
				 M576.5,417.1c-9.5,0-17.3,7.8-17.3,17.3s7.8,17.3,17.3,17.3c9.5,0,17.3-7.8,17.3-17.3S586,417.1,576.5,417.1z"/>
		</g>
		<g>
			<path fill="#FF6B74" d="M710.6,415.4c0,11.1-9,20-20,20c-11.1,0-20-9-20-20c0-11.1,9-20,20-20
				C701.7,395.4,710.6,404.4,710.6,415.4z"/>
			<path d="M690.6,438.2c-12.6,0-22.8-10.2-22.8-22.8c0-12.6,10.2-22.8,22.8-22.8s22.8,10.2,22.8,22.8
				C713.4,428,703.2,438.2,690.6,438.2z M690.6,398.1c-9.5,0-17.3,7.8-17.3,17.3s7.8,17.3,17.3,17.3c9.5,0,17.3-7.8,17.3-17.3
				S700.1,398.1,690.6,398.1z"/>
		</g>
		<g>
			<path fill="#FF6B74" d="M786.1,372c0,11.1-9,20-20,20c-11.1,0-20-9-20-20c0-11.1,9-20,20-20C777.1,352,786.1,361,786.1,372z"/>
			<path d="M766,394.8c-12.6,0-22.8-10.2-22.8-22.8s10.2-22.8,22.8-22.8s22.8,10.2,22.8,22.8S778.6,394.8,766,394.8z M766,354.7
				c-9.5,0-17.3,7.8-17.3,17.3c0,9.5,7.8,17.3,17.3,17.3c9.5,0,17.3-7.8,17.3-17.3C783.3,362.5,775.6,354.7,766,354.7z"/>
		</g>
		<g>
			<path d="M774.2,472.1h-72.6c-1.5,0-2.7-1.2-2.7-2.7c0-1.5,1.2-2.7,2.7-2.7h72.6c1.5,0,2.7,1.2,2.7,2.7
				C776.9,470.9,775.7,472.1,774.2,472.1z"/>
		</g>
		<g>
			<path d="M746,494.2h-44.4c-1.5,0-2.7-1.2-2.7-2.7s1.2-2.7,2.7-2.7H746c1.5,0,2.7,1.2,2.7,2.7S747.5,494.2,746,494.2z"/>
		</g>
		<g>
			<path d="M746,515.5h-44.4c-1.5,0-2.7-1.2-2.7-2.7s1.2-2.7,2.7-2.7H746c1.5,0,2.7,1.2,2.7,2.7S747.5,515.5,746,515.5z"/>
		</g>
		<g>
			<path d="M656.6,345.5H528c-1.5,0-2.7-1.2-2.7-2.7s1.2-2.7,2.7-2.7h128.5c1.5,0,2.7,1.2,2.7,2.7S658.1,345.5,656.6,345.5z"/>
		</g>
		<g>
			<path d="M572.4,366.8H528c-1.5,0-2.7-1.2-2.7-2.7c0-1.5,1.2-2.7,2.7-2.7h44.4c1.5,0,2.7,1.2,2.7,2.7
				C575.2,365.6,573.9,366.8,572.4,366.8z"/>
		</g>
		<g>
			<path d="M572.4,388.2H528c-1.5,0-2.7-1.2-2.7-2.7c0-1.5,1.2-2.7,2.7-2.7h44.4c1.5,0,2.7,1.2,2.7,2.7
				C575.2,387,573.9,388.2,572.4,388.2z"/>
		</g>
	</g>
	<g>
		<path fill="#FF6B74" d="M568.8,802.1c0,20-16.2,36.3-36.3,36.3s-36.3-16.2-36.3-36.3c0-20,16.2-36.3,36.3-36.3
			S568.8,782,568.8,802.1z"/>
		<path d="M532.5,841.1c-21.5,0-39-17.5-39-39c0-21.5,17.5-39,39-39c21.5,0,39,17.5,39,39C571.6,823.6,554.1,841.1,532.5,841.1z
			 M532.5,768.5c-18.5,0-33.5,15-33.5,33.5c0,18.5,15,33.5,33.5,33.5c18.5,0,33.5-15,33.5-33.5C566.1,783.6,551,768.5,532.5,768.5z"
			/>
	</g>
	<g>
		<path d="M766,762.9H596.5c-1.5,0-2.7-1.2-2.7-2.7c0-1.5,1.2-2.7,2.7-2.7H766c1.5,0,2.7,1.2,2.7,2.7
			C768.8,761.7,767.6,762.9,766,762.9z"/>
	</g>
	<g>
		<path d="M766,792.1H596.5c-1.5,0-2.7-1.2-2.7-2.7s1.2-2.7,2.7-2.7H766c1.5,0,2.7,1.2,2.7,2.7S767.6,792.1,766,792.1z"/>
	</g>
	<g>
		<path d="M766,821.3H596.5c-1.5,0-2.7-1.2-2.7-2.7c0-1.5,1.2-2.7,2.7-2.7H766c1.5,0,2.7,1.2,2.7,2.7
			C768.8,820.1,767.6,821.3,766,821.3z"/>
	</g>
	<g>
		<path d="M766,850.5H596.5c-1.5,0-2.7-1.2-2.7-2.7c0-1.5,1.2-2.7,2.7-2.7H766c1.5,0,2.7,1.2,2.7,2.7
			C768.8,849.3,767.6,850.5,766,850.5z"/>
	</g>
</g>
</svg>
