<svg id="Layer_1" data-name="Layer 1" xmlns="http://www.w3.org/2000/svg" viewBox="0 0 862.16 674.14"><defs><style>.cls-1{fill:#abadaf;}.cls-2{fill:#b7b7b7;}.cls-3{fill:#d3d3d3;}.cls-4{fill:#354350;}.cls-5{fill:#2b3844;}.cls-6{fill:#fff;}.cls-7{fill:#85d4f0;}.cls-8{fill:#f3745e;}.cls-9{fill:#e6e6e6;}.cls-10{fill:#faf17a;}</style></defs><title>computer</title><polygon class="cls-1" points="374 538.73 477.92 538.73 479.33 547.4 372.3 549.2 374 538.73"/><polygon class="cls-2" points="355.29 651.63 372.3 549.2 479.33 547.4 496.64 651.63 355.29 651.63"/><path class="cls-3" d="M952.77,537.63v40.66a20.33,20.33,0,0,1-20.34,20.31H110.91A20.31,20.31,0,0,1,90.6,578.29V537.63Z" transform="translate(-90.6 -59.86)"/><path class="cls-4" d="M90.6,80.18a20.33,20.33,0,0,1,20.31-20.32H932.43a20.35,20.35,0,0,1,20.34,20.32V537.63H90.6Z" transform="translate(-90.6 -59.86)"/><path class="cls-5" d="M932.43,537.63a3.38,3.38,0,0,0,3.4-3.39V80.18a3.37,3.37,0,0,0-3.4-3.36H110.91a3.36,3.36,0,0,0-3.36,3.36V534.24a3.37,3.37,0,0,0,3.36,3.39Z" transform="translate(-90.6 -59.86)"/><rect class="cls-6" x="32.2" y="32.18" width="797.8" height="430.32"/><path class="cls-3" d="M355.54,723.71a23.11,23.11,0,0,1,23.12-23.12H664.75a23.1,23.1,0,0,1,23.07,23.12V734H355.54Z" transform="translate(-90.6 -59.86)"/><rect class="cls-7" x="52.14" y="56.28" width="757.08" height="75.24"/><rect class="cls-8" x="562.9" y="161.46" width="246.32" height="39.08"/><rect class="cls-9" x="562.9" y="200.54" width="246.32" height="236.56"/><rect class="cls-7" x="271.69" y="266.46" width="267.17" height="42.38"/><rect class="cls-9" x="271.69" y="308.84" width="267.17" height="128.26"/><rect class="cls-10" x="52.14" y="161.46" width="486.72" height="39.08"/><polygon class="cls-9" points="538.86 200.54 538.86 254.68 261.58 254.68 261.58 437.1 52.14 437.1 52.14 200.54 538.86 200.54"/><path class="cls-4" d="M558.75,564.13c0,4.13-2.44,7.53-5.54,7.53h-63c-3.05,0-5.5-3.4-5.5-7.53h0c0-4.17,2.45-7.52,5.5-7.52h63c3.1,0,5.54,3.35,5.54,7.52Z" transform="translate(-90.6 -59.86)"/></svg>