<svg id="Layer_1" data-name="Layer 1" xmlns="http://www.w3.org/2000/svg" viewBox="0 0 209.59 418.09"><defs><style>.cls-1{fill:#d6d6d6;}.cls-2{fill:#7dc5de;}.cls-3{fill:#85d4f0;}.cls-4{fill:#414042;}.cls-5{fill:#f3745e;}.cls-6{fill:#fff;}.cls-7{fill:#faf17a;}.cls-8{fill:#e6e7e8;}</style></defs><title>phone</title><path class="cls-1" d="M616.53,591.85V223.19c0-23.59-28.57-25.86-28.57-25.86H435.5s-28.56,2.27-28.56,25.86V591.85s-.61,23.57,26.6,23.57H589.92C617.13,615.42,616.53,591.85,616.53,591.85Z" transform="translate(-406.94 -197.33)"/><polygon class="cls-2" points="197.76 53.52 11.83 53.52 11.83 284.32 197.76 94.91 197.76 53.52"/><polygon class="cls-3" points="11.83 284.32 11.83 367.3 197.76 367.3 197.76 94.91 11.83 284.32"/><path class="cls-4" d="M524.85,591.62a13.12,13.12,0,1,1-13.11-13.11A13.12,13.12,0,0,1,524.85,591.62Z" transform="translate(-406.94 -197.33)"/><rect class="cls-4" x="72.59" y="28.36" width="64.4" height="3.14"/><rect class="cls-5" x="31.01" y="93.86" width="137.97" height="21.89"/><rect class="cls-6" x="31.01" y="115.76" width="137.97" height="132.51"/><rect class="cls-7" x="49.38" y="174.23" width="137.52" height="21.81"/><rect class="cls-6" x="49.38" y="196.04" width="137.52" height="130.34"/><rect class="cls-8" x="69.55" y="213.61" width="97.17" height="11.46"/><rect class="cls-8" x="69.55" y="240.35" width="97.17" height="11.45"/><rect class="cls-8" x="69.55" y="267.09" width="97.17" height="11.45"/><rect class="cls-8" x="69.55" y="293.83" width="68.38" height="11.45"/></svg>