<svg id="Layer_1" data-name="Layer 1" xmlns="http://www.w3.org/2000/svg" viewBox="0 0 136.12 286.75"><defs><style>.cls-1{fill:#434a54;}.cls-2{fill:#656d78;}.cls-3{fill:#fff;}.cls-4{fill:#27ae60;}.cls-5{fill:#ffa800;}.cls-6{opacity:0.8;}.cls-7{fill:#cacfd2;}.cls-8{fill:#f0d0b4;}.cls-8,.cls-9{fill-rule:evenodd;}.cls-9{fill:#f6e3d2;}</style></defs><title>phone2</title><g id="flat_style" data-name="flat style"><g id="icon"><g id="mobile"><path class="cls-1" d="M188.49,10.25H107.75A23.93,23.93,0,0,0,83.9,34.11V215.77a23.92,23.92,0,0,0,23.85,23.85h80.74a23.93,23.93,0,0,0,23.86-23.85V34.11A23.93,23.93,0,0,0,188.49,10.25Z" transform="translate(-83.9 -10.25)"/><path class="cls-2" d="M133.43,17.23c0-.81,1.33-1.47,2.94-1.47h23.5c1.61,0,2.93.66,2.93,1.47V18c0,.81-1.32,1.47-2.93,1.47h-23.5c-1.61,0-2.94-.66-2.94-1.47Z" transform="translate(-83.9 -10.25)"/><path class="cls-2" d="M150.87,25.86a2.75,2.75,0,1,1-2.75-2.77A2.75,2.75,0,0,1,150.87,25.86Z" transform="translate(-83.9 -10.25)"/><path class="cls-2" d="M162.8,227.51a3,3,0,0,1-2.93,2.94h-23.5a3,3,0,0,1-2.94-2.94v-1.46a3,3,0,0,1,2.94-2.94h23.5a3,3,0,0,1,2.93,2.94Z" transform="translate(-83.9 -10.25)"/><rect class="cls-3" x="11.59" y="23.86" width="106.97" height="181.66"/></g><g id="content"><rect class="cls-4" x="23.25" y="49.94" width="48.77" height="26.08"/><rect class="cls-5" x="83.29" y="49.94" width="24.2" height="26.08"/><g class="cls-6"><rect class="cls-7" x="23.25" y="102.55" width="84.24" height="4.49"/><rect class="cls-7" x="23.25" y="119.9" width="84.24" height="4.49"/><rect class="cls-7" x="23.25" y="137.26" width="84.24" height="4.48"/><rect class="cls-7" x="23.25" y="154.61" width="84.24" height="4.49"/><rect class="cls-7" x="23.25" y="171.97" width="84.24" height="4.49"/></g></g><g id="hand"><path class="cls-8" d="M164.28,286.93c-.05-8.36.73-9.69-.88-12a57.07,57.07,0,0,1-7.78-14.56c-6.35-16.94-11.19-33.08-17.3-49.75a7.36,7.36,0,0,1,3.25-9.88h0a7.36,7.36,0,0,1,9.88,3.25c2,5.28,7.12,21.49,7.59,21.38V163.21a7.39,7.39,0,0,1,7.36-7.36h0a7.39,7.39,0,0,1,7.36,7.36v58.38l.71.23V199.47a7.39,7.39,0,0,1,7.36-7.37h0a7.4,7.4,0,0,1,7.37,7.37v27.77l.56.15V205.68a7.38,7.38,0,0,1,7.37-7.36h0a7.39,7.39,0,0,1,7.36,7.36v24.95c.19.12.38.25.56.39v-17.8a7.39,7.39,0,0,1,7.36-7.37h0a7.39,7.39,0,0,1,7.37,7.37c0,15.79,1,31.87-1.19,47.15-2.24,9-5.2,11.66-6.57,17.38l-.37,9.18Z" transform="translate(-83.9 -10.25)"/><path class="cls-9" d="M160.41,164.12a6,6,0,1,1,6,6A6,6,0,0,1,160.41,164.12Z" transform="translate(-83.9 -10.25)"/><path class="cls-9" d="M137.93,204.93a6,6,0,0,1,2.57,11.63l-2.18-5.94A7.31,7.31,0,0,1,137.93,204.93Z" transform="translate(-83.9 -10.25)"/><rect class="cls-1" x="76.8" y="268.67" width="55.31" height="18.08"/></g></g></g></svg>